<?xml version="1.0" encoding="UTF-8" standalone="no"?>
<svg id="Layer_1" xmlns:rdf="http://www.w3.org/1999/02/22-rdf-syntax-ns#" xmlns="http://www.w3.org/2000/svg" enable-background="new 0 0 100 84.509" xml:space="preserve" height="100px" viewBox="0 0 100 84.509" width="100px" version="1.0" y="0px" x="0px" xmlns:cc="http://creativecommons.org/ns#" xmlns:dc="http://purl.org/dc/elements/1.1/">
	<metadata id="metadata21">
		<rdf:RDF>
			<cc:Work rdf:about="">
				<dc:format>
					image/svg+xml
				</dc:format>
				<dc:type rdf:resource="http://purl.org/dc/dcmitype/StillImage"/>
				<dc:title/>
			</cc:Work>
		</rdf:RDF>
	</metadata>
	<polygon id="polygon3" points="65.818,60.524,70.158,60.524,70.158,13.839,65.818,13.839,65.818,60.524" fill="#f7611e"/>
	<polygon id="polygon5" points="74.043,60.524,78.383,60.524,78.383,16.329,74.043,16.329,74.043,60.524" fill="#f7611e"/>
	<g id="g7">
		<path id="path9" fill="#33aae5" d="M26.087,44.904c-6.4,0-11.61,5.203-11.61,11.602,0,6.401,5.21,11.608,11.61,11.608,6.397,0,11.608-5.207,11.608-11.608,0-6.399-5.211-11.602-11.608-11.602z"/>
		<path id="path11" fill="#f7611e" d="M51.658,0h-40.809c-5.985,0-10.849,4.865-10.849,10.847v62.818c0,5.975,4.864,10.844,10.849,10.844h40.809c5.979,0,10.845-4.869,10.845-10.844v-62.818c-0.001-5.982-4.866-10.847-10.845-10.847zm-25.571,72.455c-8.795,0-15.947-7.152-15.947-15.949,0-8.789,7.151-15.941,15.947-15.941,8.792,0,15.943,7.152,15.943,15.941,0,8.797-7.151,15.949-15.943,15.949zm19.128-46.69c-5.308,0-9.628-4.317-9.628-9.627,0-5.312,4.32-9.632,9.628-9.632,5.314,0,9.639,4.321,9.639,9.632,0,5.31-4.325,9.627-9.639,9.627z"/>
		<path id="path13" fill="#33aae5" d="M45.215,10.841c-2.915,0-5.289,2.376-5.289,5.297,0,2.919,2.375,5.289,5.289,5.289,2.921,0,5.298-2.37,5.298-5.289,0-2.921-2.377-5.297-5.298-5.297z"/>
	</g>
	<polygon id="polygon15" points="86.615,30.677,86.615,22.833,82.274,22.833,82.274,64.671,65.886,64.671,65.886,69.012,86.548,69.012,86.548,68.941,86.615,68.941,86.615,59.979,100,59.979,100,30.677" fill="#f7611e"/>
</svg>
